<svg xmlns="http://www.w3.org/2000/svg" version="1.1" xmlns:xlink="http://www.w3.org/1999/xlink" xmlns:svgjs="http://svgjs.com/svgjs" width="500" height="250" preserveAspectRatio="none" viewBox="0 0 500 250"><g mask="url(&quot;#SvgjsMask1149&quot;)" fill="none"><rect width="500" height="250" x="0" y="0" fill="rgba(222, 224, 247, 1)"></rect><path d="M144.19 168.73 a75.52 75.52 0 1 0 151.04 0 a75.52 75.52 0 1 0 -151.04 0z" fill="rgba(237, 234, 255, 1)" class="triangle-float3"></path><path d="M246.46 8.85 a57.29 57.29 0 1 0 114.58 0 a57.29 57.29 0 1 0 -114.58 0z" fill="rgba(237, 234, 255, 1)" class="triangle-float2"></path><path d="M410.9 127.27 a48.27 48.27 0 1 0 96.54 0 a48.27 48.27 0 1 0 -96.54 0z" fill="rgba(237, 234, 255, 1)" class="triangle-float2"></path><path d="M-41.59 104.82 a58.7 58.7 0 1 0 117.4 0 a58.7 58.7 0 1 0 -117.4 0z" fill="rgba(237, 234, 255, 1)" class="triangle-float2"></path></g><defs><mask id="SvgjsMask1149"><rect width="500" height="250" fill="#ffffff"></rect></mask></defs></svg>