<svg xmlns="http://www.w3.org/2000/svg" version="1.1" xmlns:xlink="http://www.w3.org/1999/xlink" xmlns:svgjs="http://svgjs.com/svgjs" width="1400" height="768" preserveAspectRatio="none" viewBox="0 0 1400 768"><g mask="url(&quot;#SvgjsMask1173&quot;)" fill="none"><rect width="1400" height="768" x="0" y="0" fill="rgba(4, 5, 16, 1)"></rect><path d="M-110.02 7.63 a117.65 117.65 0 1 0 235.3 0 a117.65 117.65 0 1 0 -235.3 0z" fill="rgba(36, 37, 41, 1)" class="triangle-float2"></path><path d="M-79.24 -23.17 a56.07 56.07 0 1 0 112.14 0 a56.07 56.07 0 1 0 -112.14 0z" fill="rgba(36, 37, 41, 1)" class="triangle-float2"></path><path d="M-79.52 -22.88 a56.64 56.64 0 1 0 113.28 0 a56.64 56.64 0 1 0 -113.28 0z" fill="rgba(36, 37, 41, 1)" class="triangle-float3"></path><path d="M1096.41 47.59 a197.58 197.58 0 1 0 395.16 0 a197.58 197.58 0 1 0 -395.16 0z" fill="rgba(36, 37, 41, 1)" class="triangle-float2"></path><path d="M1174.16 -30.15 a42.09 42.09 0 1 0 84.18 0 a42.09 42.09 0 1 0 -84.18 0z" fill="rgba(36, 37, 41, 1)" class="triangle-float2"></path><path d="M1074.12 69.88 a242.16 242.16 0 1 0 484.32 0 a242.16 242.16 0 1 0 -484.32 0z" fill="rgba(36, 37, 41, 1)" class="triangle-float2"></path><path d="M-165.19 677.2 a227.99 227.99 0 1 0 455.98 0 a227.99 227.99 0 1 0 -455.98 0z" fill="rgba(36, 37, 41, 1)" class="triangle-float1"></path><path d="M-112.46 624.46 a122.52 122.52 0 1 0 245.04 0 a122.52 122.52 0 1 0 -245.04 0z" fill="rgba(36, 37, 41, 1)" class="triangle-float3"></path><path d="M-177.45 689.45 a252.5 252.5 0 1 0 505 0 a252.5 252.5 0 1 0 -505 0z" fill="rgba(36, 37, 41, 1)" class="triangle-float3"></path><path d="M1169.41 588.99 a51.58 51.58 0 1 0 103.16 0 a51.58 51.58 0 1 0 -103.16 0z" fill="rgba(36, 37, 41, 1)" class="triangle-float3"></path><path d="M1140.33 618.07 a109.74 109.74 0 1 0 219.48 0 a109.74 109.74 0 1 0 -219.48 0z" fill="rgba(36, 37, 41, 1)" class="triangle-float3"></path><path d="M1149.17 609.22 a92.05 92.05 0 1 0 184.1 0 a92.05 92.05 0 1 0 -184.1 0z" fill="rgba(36, 37, 41, 1)" class="triangle-float3"></path></g><defs><mask id="SvgjsMask1173"><rect width="1400" height="768" fill="#ffffff"></rect></mask></defs></svg>