<svg xmlns="http://www.w3.org/2000/svg" version="1.1" xmlns:xlink="http://www.w3.org/1999/xlink" xmlns:svgjs="http://svgjs.com/svgjs" width="100" height="50" preserveAspectRatio="none" viewBox="0 0 100 50"><g mask="url(&quot;#SvgjsMask1158&quot;)" fill="none"><rect width="100" height="50" x="0" y="0" fill="rgba(222, 224, 247, 1)"></rect><path d="M68.57 5.26 a12.24 12.24 0 1 0 24.48 0 a12.24 12.24 0 1 0 -24.48 0z" fill="rgba(237, 234, 255, 1)" class="triangle-float3"></path><path d="M4.99 21.43 a11.42 11.42 0 1 0 22.84 0 a11.42 11.42 0 1 0 -22.84 0z" fill="rgba(237, 234, 255, 1)" class="triangle-float3"></path><path d="M-1.99 4.19 a11.34 11.34 0 1 0 22.68 0 a11.34 11.34 0 1 0 -22.68 0z" fill="rgba(237, 234, 255, 1)" class="triangle-float2"></path><path d="M20.64 33.85 a9.36 9.36 0 1 0 18.72 0 a9.36 9.36 0 1 0 -18.72 0z" fill="rgba(237, 234, 255, 1)" class="triangle-float3"></path></g><defs><mask id="SvgjsMask1158"><rect width="100" height="50" fill="#ffffff"></rect></mask></defs></svg>