<svg xmlns="http://www.w3.org/2000/svg" version="1.1" xmlns:xlink="http://www.w3.org/1999/xlink" xmlns:svgjs="http://svgjs.com/svgjs" width="1400" height="768" preserveAspectRatio="none" viewBox="0 0 1400 768"><g mask="url(&quot;#SvgjsMask1166&quot;)" fill="none"><rect width="1400" height="768" x="0" y="0" fill="rgba(222, 224, 247, 1)"></rect><path d="M-86.46 -15.94 a70.52 70.52 0 1 0 141.04 0 a70.52 70.52 0 1 0 -141.04 0z" fill="rgba(237, 234, 255, 1)" class="triangle-float2"></path><path d="M-155.74 53.34 a209.08 209.08 0 1 0 418.16 0 a209.08 209.08 0 1 0 -418.16 0z" fill="rgba(237, 234, 255, 1)" class="triangle-float1"></path><path d="M-92.55 -9.84 a82.71 82.71 0 1 0 165.42 0 a82.71 82.71 0 1 0 -165.42 0z" fill="rgba(237, 234, 255, 1)" class="triangle-float2"></path><path d="M1101.71 42.3 a186.99 186.99 0 1 0 373.98 0 a186.99 186.99 0 1 0 -373.98 0z" fill="rgba(237, 234, 255, 1)" class="triangle-float1"></path><path d="M1120.19 23.82 a150.03 150.03 0 1 0 300.06 0 a150.03 150.03 0 1 0 -300.06 0z" fill="rgba(237, 234, 255, 1)" class="triangle-float3"></path><path d="M1092.76 51.25 a204.89 204.89 0 1 0 409.78 0 a204.89 204.89 0 1 0 -409.78 0z" fill="rgba(237, 234, 255, 1)" class="triangle-float2"></path><path d="M-148.58 660.57 a194.75 194.75 0 1 0 389.5 0 a194.75 194.75 0 1 0 -389.5 0z" fill="rgba(237, 234, 255, 1)" class="triangle-float1"></path><path d="M-146.73 658.72 a191.05 191.05 0 1 0 382.1 0 a191.05 191.05 0 1 0 -382.1 0z" fill="rgba(237, 234, 255, 1)" class="triangle-float3"></path><path d="M-159.21 671.2 a216.01 216.01 0 1 0 432.02 0 a216.01 216.01 0 1 0 -432.02 0z" fill="rgba(237, 234, 255, 1)" class="triangle-float1"></path><path d="M1072.85 685.55 a244.7 244.7 0 1 0 489.4 0 a244.7 244.7 0 1 0 -489.4 0z" fill="rgba(237, 234, 255, 1)" class="triangle-float2"></path><path d="M1169.48 588.91 a51.43 51.43 0 1 0 102.86 0 a51.43 51.43 0 1 0 -102.86 0z" fill="rgba(237, 234, 255, 1)" class="triangle-float2"></path><path d="M1089.56 668.84 a211.28 211.28 0 1 0 422.56 0 a211.28 211.28 0 1 0 -422.56 0z" fill="rgba(237, 234, 255, 1)" class="triangle-float3"></path></g><defs><mask id="SvgjsMask1166"><rect width="1400" height="768" fill="#ffffff"></rect></mask></defs></svg>